<svg id="Layer_1" data-name="Layer 1" xmlns="http://www.w3.org/2000/svg" viewBox="0 0 59.72 46.53"><defs><style>.cls-1{fill:#ce3266;stroke:#ce3266;stroke-miterlimit:10;stroke-width:0.75px;}</style></defs><path class="cls-1" d="M24,31.45a5.92,5.92,0,1,1,5.89,5.94A5.9,5.9,0,0,1,24,31.45Zm10.06,0a4.15,4.15,0,1,0-4.15,4.19A4.14,4.14,0,0,0,34,31.44Z"/><path class="cls-1" d="M47.25,16.06a5.92,5.92,0,0,1,0-11.83,5.92,5.92,0,1,1,0,11.83Zm0-1.76a4.16,4.16,0,1,0-4.15-4.12A4.16,4.16,0,0,0,47.23,14.3Z"/><path class="cls-1" d="M12.49,16.06a5.92,5.92,0,1,1,5.92-5.9A5.92,5.92,0,0,1,12.49,16.06Zm0-1.76a4.16,4.16,0,1,0,0-8.31,4.16,4.16,0,1,0,0,8.31Z"/><path class="cls-1" d="M47.26,17.26a33.89,33.89,0,0,1,3.65.28A6.63,6.63,0,0,1,56,22.82c.15.84-.3,1.38-1,1.23a.89.89,0,0,1-.71-.78,4.93,4.93,0,0,0-5.19-4.16c-1.58,0-3.17-.06-4.74.08a4.78,4.78,0,0,0-4.11,3.75c0,.14-.05.28-.09.43a.87.87,0,0,1-1.07.68.84.84,0,0,1-.66-1A6.75,6.75,0,0,1,45,17.34c.76,0,1.51,0,2.26,0Z"/><path class="cls-1" d="M37.8,45.36c-.5,0-.77-.25-.88-.8a4.92,4.92,0,0,0-4.09-4.07,11,11,0,0,0-1.52-.06H27.79a4.93,4.93,0,0,0-5,4.12.89.89,0,0,1-1.3.74.85.85,0,0,1-.44-1,6.66,6.66,0,0,1,5.42-5.47,16.49,16.49,0,0,1,2.63-.12,31.81,31.81,0,0,1,4.15.13,6.63,6.63,0,0,1,5.4,5.5C38.76,45,38.43,45.37,37.8,45.36Z"/><path class="cls-1" d="M12.5,17.26a32.2,32.2,0,0,1,3.7.29,6.62,6.62,0,0,1,5.11,5.54.82.82,0,0,1-.69,1,.87.87,0,0,1-1-.62c-.06-.22-.08-.45-.14-.67a4.74,4.74,0,0,0-4.1-3.56,37.53,37.53,0,0,0-5.71,0,4.75,4.75,0,0,0-4.18,3.94,1.57,1.57,0,0,1-.36.73.82.82,0,0,1-1,.09A.84.84,0,0,1,3.69,23,6.61,6.61,0,0,1,8.8,17.55,32.2,32.2,0,0,1,12.5,17.26Z"/><path class="cls-1" d="M29.69,1.76A21.28,21.28,0,0,1,39.51,4.3a1.78,1.78,0,0,1,.55.39.81.81,0,0,1,0,1.08A.89.89,0,0,1,38.9,6c-.89-.41-1.75-.88-2.67-1.21A18.8,18.8,0,0,0,21,5.69l-.3.16a.9.9,0,0,1-1.27-.34.87.87,0,0,1,.45-1.22,19.87,19.87,0,0,1,6.73-2.24C27.61,1.91,28.65,1.85,29.69,1.76Z"/><path class="cls-1" d="M19.28,39c-.23.3-.36.64-.59.73a1.2,1.2,0,0,1-1-.05A14.77,14.77,0,0,1,16,38.29a20.63,20.63,0,0,1-6.59-11,.91.91,0,0,1,.61-1.2.89.89,0,0,1,1.09.78,19.15,19.15,0,0,0,7.61,11.36A4,4,0,0,1,19.28,39Z"/><path class="cls-1" d="M50,27c-.12.43-.23.94-.38,1.44a20.84,20.84,0,0,1-7.68,11,.94.94,0,0,1-1.13.13.76.76,0,0,1-.37-.93A1.54,1.54,0,0,1,41,38a18.9,18.9,0,0,0,6.14-7.77c.43-1,.71-2.1,1.06-3.15a2.91,2.91,0,0,1,.16-.5.81.81,0,0,1,1-.46A.91.91,0,0,1,50,27Z"/></svg>