<svg id="Layer_1" data-name="Layer 1" xmlns="http://www.w3.org/2000/svg" viewBox="0 0 59.72 46.53"><defs><style>.cls-1{fill:#ce3266;stroke:#ce3266;stroke-miterlimit:10;}</style></defs><path class="cls-1" d="M48.36,19.77c0,3,.08,6,0,9.05a9.86,9.86,0,0,1-4.07,7.82c-3.66,2.75-7.4,5.41-11.14,8.07a5.68,5.68,0,0,1-6.55,0c-3.7-2.62-7.39-5.25-11-8a10.2,10.2,0,0,1-4.2-8.48c0-5.85,0-11.69,0-17.54a3,3,0,0,1,2.72-3.06,37.24,37.24,0,0,0,7.56-2,19.38,19.38,0,0,0,6.11-3.89A2.94,2.94,0,0,1,32,1.68a21.24,21.24,0,0,0,6.69,4.2,40.3,40.3,0,0,0,6.68,1.67c.28,0,.56.09.84.16a2.88,2.88,0,0,1,2.13,2.51c0,.22,0,.44,0,.66v8.89Zm-1.93.05V10.9c0-1-.22-1.24-1.21-1.4a42.13,42.13,0,0,1-7.1-1.77,23,23,0,0,1-7.31-4.51c-.74-.63-1.1-.63-1.82,0a21.22,21.22,0,0,1-5.85,3.88,37.36,37.36,0,0,1-8.86,2.45,1,1,0,0,0-1,1.13c0,5.87,0,11.75,0,17.62a8.24,8.24,0,0,0,3.41,6.83c3.61,2.69,7.29,5.3,11,7.92a3.69,3.69,0,0,0,3.6.42,4.38,4.38,0,0,0,1-.55q5.22-3.75,10.42-7.52a8.68,8.68,0,0,0,3.76-7.33C46.44,25.33,46.43,22.58,46.43,19.82Z"/><path class="cls-1" d="M26.49,28.92l2.8-2.7,8.43-8.11c.1-.1.2-.2.31-.29a1,1,0,0,1,1.36,1.37,2.47,2.47,0,0,1-.28.28L27.38,30.77c-.69.66-1.11.66-1.79,0L20.53,25.9a1.05,1.05,0,0,1-.39-1,1,1,0,0,1,1.65-.45c.75.7,1.48,1.42,2.22,2.13Z"/></svg>